<?xml version="1.0" encoding="utf-8"?>
<!-- Generator: Adobe Illustrator 19.0.0, SVG Export Plug-In . SVG Version: 6.00 Build 0)  -->
<svg version="1.1" id="Layer_1" xmlns="http://www.w3.org/2000/svg" xmlns:xlink="http://www.w3.org/1999/xlink" x="0px" y="0px"
	 viewBox="0 0 238 372" style="enable-background:new 0 0 238 372;" xml:space="preserve">
<style type="text/css">
	.st0{fill:#FFA6A6;}
	.st1{opacity:0.1;}
	.st2{fill:#F79C9C;}
	.st3{fill:#F7D4AD;}
	.st4{opacity:5.000000e-02;}
	.st5{fill:#E89191;}
	.st6{fill:#F7BCBC;}
</style>
<g id="XMLID_41_">
	<path id="XMLID_4_" class="st0" d="M116.9,28L116.9,28c-3.2,0-6.4,0.2-9.6,0.5c-1.9,0.2-3.1,2-2.8,3.8c0,0,0,0,0,0
		c1.9,10.8-5.3,21.2-16.2,23.1c-3.7,0.6-7.3,0.2-10.5-1c-1.5-0.6-3.1,0-3.9,1.4c-1.5,2.6-4.1,4.5-7.2,5c-3.1,0.6-6.2-0.3-8.5-2.2
		c-1.5-1.2-3.7-0.9-4.8,0.8c-6.2,9.7-9.8,21.5-9.8,34.8v142.5c0,12,9.7,21.7,21.7,21.7h89.2c3.1,0,5.6,2.5,5.6,5.6v4.6
		c0,2.5,2,4.6,4.6,4.6h0.9c2.5,0,4.6-2,4.6-4.6v-2.2c0-2.6,1.9-5,4.5-5.2c3-0.3,5.5,2.1,5.5,5h10v-29.4v-5.1V94.3
		C190.1,53.8,157.3,28,116.9,28z"/>
	<ellipse id="XMLID_30_" class="st1" cx="116.9" cy="342.6" rx="28.2" ry="7.5"/>
	<path id="XMLID_28_" class="st2" d="M89.8,187h-0.7c-8,0-14.4-6.5-14.4-14.4V97.4c0-8,6.5-14.4,14.4-14.4h0.7
		c8,0,14.4,6.5,14.4,14.4v75.1C104.2,180.5,97.7,187,89.8,187z"/>
	<path id="XMLID_31_" class="st2" d="M145.4,187h-0.7c-8,0-14.4-6.5-14.4-14.4V97.4c0-8,6.5-14.4,14.4-14.4h0.7
		c8,0,14.4,6.5,14.4,14.4v75.1C159.8,180.5,153.4,187,145.4,187z"/>
	<path id="XMLID_32_" class="st3" d="M116.9,344.3L116.9,344.3c-6.9,0-12.5-5.6-12.5-12.5v-73.4h25v73.4
		C129.3,338.7,123.7,344.3,116.9,344.3z"/>
	<rect id="XMLID_33_" x="104.4" y="258.4" class="st4" width="25" height="10.1"/>
	<circle id="XMLID_27_" class="st5" cx="89.4" cy="210" r="4.5"/>
	<path id="XMLID_36_" class="st5" d="M130,224c0.9,0,1.7,0.8,1.6,1.7c-0.9,7.3-7.1,13.1-14.7,13.1c-7.6,0-13.8-5.7-14.7-13.1
		c-0.1-0.9,0.6-1.7,1.6-1.7H130z"/>
	<path id="XMLID_40_" class="st6" d="M116.9,229.6c-4,0-8,2.1-10.4,4.9c2.4,2.8,6.4,4.3,10.4,4.3s7.9-1.4,10.4-4.2
		C124.8,231.7,120.9,229.6,116.9,229.6z"/>
	<circle id="XMLID_34_" class="st5" cx="145.1" cy="210" r="4.5"/>
	<circle id="XMLID_5_" class="st0" cx="185.1" cy="286.2" r="5"/>
	<ellipse id="XMLID_1_" class="st0" cx="174.2" cy="342" rx="20.3" ry="7"/>
	<rect id="XMLID_2_" x="180.1" y="266.1" class="st0" width="10" height="25.1"/>
	<rect id="XMLID_42_" x="160" y="266.1" class="st0" width="10" height="25.1"/>
	<circle id="XMLID_6_" class="st0" cx="165" cy="286.2" r="5"/>
</g>
</svg>
